<svg xmlns="http://www.w3.org/2000/svg" xmlns:xlink="http://www.w3.org/1999/xlink" viewBox="0 0 323.12 86.59"><defs><style>.cls-1{fill:none;clip-rule:evenodd;}.cls-2{clip-path:url(#clip-path);}.cls-3{fill:url(#linear-gradient);}</style><clipPath id="clip-path"><path class="cls-1" d="M46.44,14.62a7.15,7.15,0,1,1-7.14,7.15,7.15,7.15,0,0,1,7.14-7.15m7.15,39.7,5-5a7.28,7.28,0,0,0,2.18-4.48,13,13,0,0,0,.09-1.58A7.14,7.14,0,0,1,68,36.15H78.73a7.15,7.15,0,1,1,0,14.29H67.9a11.35,11.35,0,0,0-1.54.08,7.35,7.35,0,0,0-4.45,2.19l-6.06,6a7.39,7.39,0,0,0-2.18,4.45c-.05.4-.07.81-.08,1.21v.4a7.15,7.15,0,1,1-14.29,0V43.22a12.56,12.56,0,0,0-.08-1.5A7.35,7.35,0,0,0,37,37.24L31,31.18A7.35,7.35,0,0,0,26.49,29a15.39,15.39,0,0,0-1.57-.08,7.15,7.15,0,1,1,7.14-7.07,13.25,13.25,0,0,0,.09,1.54,7.28,7.28,0,0,0,2.18,4.45l6.05,6.06a7.32,7.32,0,0,0,4.45,2.17,13.34,13.34,0,0,0,3.22,0,7.39,7.39,0,0,0,4.45-2.18l6.06-6.06a7.33,7.33,0,0,0,2.18-4.47,11.36,11.36,0,0,0,.09-1.59A7.15,7.15,0,0,1,68,14.62H89.5a7.15,7.15,0,0,1,0,14.29H67.9a10.93,10.93,0,0,0-1.51.09,7.33,7.33,0,0,0-4.48,2.18l-6.06,6.06a7.39,7.39,0,0,0-2.18,4.48,11.11,11.11,0,0,0-.08,1.41Z"/></clipPath><linearGradient id="linear-gradient" x1="-10" y1="43.3" x2="124.41" y2="43.3" gradientTransform="translate(38.54 -25.98) rotate(37.8)" gradientUnits="userSpaceOnUse"><stop offset="0" stop-color="#01be9e"/><stop offset="0.6" stop-color="#01c4a4"/><stop offset="1" stop-color="#00ccac"/></linearGradient></defs><title>Logo</title><g id="Logo"><g class="cls-2"><rect class="cls-3" x="8.48" y="-3.53" width="97.46" height="93.65" transform="translate(-14.53 44.15) rotate(-37.8)"/></g><path d="M279.71,57.83a11,11,0,0,0,15.28,0A10.55,10.55,0,0,0,298,50.09,10.58,10.58,0,0,0,295,42.34a11,11,0,0,0-15.28,0,10.58,10.58,0,0,0-3,7.75,10.55,10.55,0,0,0,3,7.74M298,33.18h7.3V67H298V62.13q-4.12,5.74-11.84,5.75a15.88,15.88,0,0,1-11.91-5.18,17.58,17.58,0,0,1-4.93-12.61,17.56,17.56,0,0,1,4.93-12.65A15.91,15.91,0,0,1,286.2,32.3q7.71,0,11.84,5.68Zm-47.49,34.7a17.51,17.51,0,0,1-17.86-17.79A17.44,17.44,0,0,1,250.55,32.3a17.63,17.63,0,0,1,9,2.36A15.31,15.31,0,0,1,265.63,41l-6.29,3.66a8.6,8.6,0,0,0-3.48-3.83,10.38,10.38,0,0,0-5.38-1.38,10.06,10.06,0,0,0-7.47,3,10.34,10.34,0,0,0-3,7.58,10.3,10.3,0,0,0,3,7.57,10.07,10.07,0,0,0,7.47,3.05,10.42,10.42,0,0,0,5.38-1.42,9.28,9.28,0,0,0,3.62-3.79l6.29,3.58a16.09,16.09,0,0,1-6.22,6.43A17.54,17.54,0,0,1,250.55,67.88ZM218.82,67V33.18h7.31V67Zm6.94-40.28a4.67,4.67,0,0,1-7.95-3.29,4.56,4.56,0,0,1,1.35-3.28,4.67,4.67,0,0,1,6.63,0,4.64,4.64,0,0,1,0,6.57Zm-41.1,31.11a11,11,0,0,0,15.29,0,10.55,10.55,0,0,0,3-7.74,10.57,10.57,0,0,0-3-7.75,11,11,0,0,0-15.29,0,10.57,10.57,0,0,0-3,7.75A10.55,10.55,0,0,0,184.66,57.83ZM203,19.65h7.31V67H203V62.13q-4.12,5.74-11.84,5.75a15.86,15.86,0,0,1-11.9-5.18,17.59,17.59,0,0,1-4.94-12.61,17.57,17.57,0,0,1,4.94-12.65,15.89,15.89,0,0,1,11.9-5.14q7.72,0,11.84,5.68Zm-60.48,27.6H162.4A9.75,9.75,0,0,0,159,41a9.89,9.89,0,0,0-6.26-2.09A10.24,10.24,0,0,0,146,41.16,10.08,10.08,0,0,0,142.51,47.25Zm.07,6a9.29,9.29,0,0,0,3.72,5.92,12,12,0,0,0,7.11,2.06q5.82,0,8.72-4.19l6,3.52q-5,7.37-14.81,7.37-8.25,0-13.33-5a17.23,17.23,0,0,1-5.07-12.75,17.45,17.45,0,0,1,5-12.69,17.25,17.25,0,0,1,12.86-5.1A15.79,15.79,0,0,1,165,37.51a18.05,18.05,0,0,1,4.77,12.65,22.65,22.65,0,0,1-.27,3Zm-10-27.4q-8-.74-8,6.7v.68h8v7h-8V67h-7.31V40.21h-5.14v-7h5.14V32.5q0-7,3.89-10.59t11.4-3.14Z"/></g></svg>