<?xml version="1.0" encoding="UTF-8"?>
<svg width="600px" height="600px" viewBox="0 0 600 600" version="1.1" xmlns="http://www.w3.org/2000/svg" xmlns:xlink="http://www.w3.org/1999/xlink">
    <!-- Generator: Sketch 43.2 (39069) - http://www.bohemiancoding.com/sketch -->
    <title>logo-wm-favicon</title>
    <desc>Created with Sketch.</desc>
    <defs/>
    <g id="Final" stroke="none" stroke-width="1" fill="none" fill-rule="evenodd">
        <g id="logo-wm-favicon">
            <circle id="Oval-3" fill="#FF5500" cx="300" cy="300" r="300"/>
            <path d="M175.384615,438.461538 L120.814565,169.690623 C116.315974,147.196065 130.903289,125.313534 153.396245,120.814623 C175.889202,116.315711 197.770174,130.904065 202.268766,153.398623 L217.22389,229.265165 L230.769231,161.538462 L313.846154,161.538462 L327.692308,230.769231 L341.538462,161.538462 L424.615385,161.538462 L369.230769,438.461538 L286.153846,438.461538 L272.307692,369.230769 L258.461538,438.461538 L175.384615,438.461538 Z M384.837992,381.194654 L384.837992,381.194654 L426.70795,171.844863 L479.185435,430.309377 C483.684026,452.803935 469.096711,474.686466 446.603755,479.185377 C424.110798,483.684289 402.229826,469.095935 397.731234,446.601377 L384.837992,381.194654 Z" id="WM" fill="#FFFFFF"/>
        </g>
    </g>
</svg>