<svg height="250" viewBox="0 0 250 250" width="250" xmlns="http://www.w3.org/2000/svg" xmlns:xlink="http://www.w3.org/1999/xlink"><linearGradient id="a"><stop offset="0" stop-color="#a4b6cf"/><stop offset="1" stop-color="#486c9e"/></linearGradient><linearGradient id="b" x1="-.084746%" x2="99.830509%" xlink:href="#a" y1="50.201633%" y2="50.201633%"/><linearGradient id="c" x1=".15083%" x2="100%" xlink:href="#a" y1="49.66505%" y2="49.66505%"/><linearGradient id="d" x1=".106157%" x2="100%" xlink:href="#a" y1="49.654599%" y2="49.654599%"/><g fill="none" fill-rule="nonzero"><g transform="matrix(-1 0 0 1 233.971816 5)"><g fill="#fff" transform="translate(39.969144 13.932803)"><path d="m13.0832732.58880989c-3.19999997-1.9-6.89999997 1.2-8.89999997 3.6-2.8 3.6-4.6 8.30000001-4.1 12.90000001.2 2.4 1.4 5 3.7 6 0 0 .1 0 .2-.1-1.6-3.7-.4-8 1.7-11.2.9-1.3 2.3-2.80000001 4-2.20000001-1.7 1.70000001-.8 6.60000001 1.89999997 3.80000001.2 2.4-.2 4.8-1.1 7 .4 0 .9 0 1.3-.1.3-.5.7-1.1 1-1.6 2.9-5.4 4.1-13.00000001.2-18.20000001z"/><path d="m42.8832732 133.28881c-.2-1.5-.4-3.7-2.2-4.1-2.6 1.5-3.4 4.8-4.1 7.6 1 .8 2.1 1.3 3.3 1.5.6-1.8 1.6-3.6 3-5z"/><path d="m47.0832732 139.78881c.3-1.9.7-4.7-1.2-5.9-2.3.2-3.5 2.9-4.3 4.9 1.6 1 3.7 1.6 5.6 1.1z"/><path d="m120.683273 137.58881c-.5-1.4-1.3-3.9-3.2-3.4-2.1 2-2.1 5.3-2.4 8 1.1.6 2.4.9 3.7.9.2-2 .9-3.8 1.9-5.5z"/><path d="m126.083273 143.08881c-.2-1.9-.3-4.9-2.6-5.4-2.1.8-2.6 3.6-3.1 5.6 1.8.7 4.1 1 5.7-.2z"/></g><g fill="#14331f"><path d="m54.2524169 3.92161314c-6.6-3.7-14.6-5.3-21.8-2.5-10.7 3.4-20 10.39999996-27.59999998 18.49999996-4.49999999 4.6-5.7 11.7-4.3 17.8 1.4 6.5 5.7 12.1 10.89999998 16.2 2.5 1.9 5.6 2.9 8.7 3.2 3.5 5.9 11 8 17.5 8.7-.9 14.3 5.1 30 18.1 36.9999999 1.4 0 2.6-.6 3.9-1-4.2-2.2999999-8-5.1999999-11-8.8999999-6.1-7.5-8.4-17.5-7.9-27 .8-.1 1.5-.2 2.3-.4 1.2-.3 2.3-.7 3.4-1.2-7.8 0-16.2-1.6-22.2-6.9 6.7-.6 14.9-2.4 18.2-9 2 .7 4.2 1.1 6.3.4-3-.7-6-1.5-8.5-3.3.2.8.7 1.6 1.2 2.3-2.4 3.9-7 5.7-11.2 6.5-7.5 1.5-16.4 0-21.29999998-6.4-6.4-6.8-8.59999999-18.6-2-25.9 7.89999998-8.4 17.49999998-15.79999996 28.79999998-18.59999996 5.3-1.4 10.9 0 15.8 2.2-.5.4-.9.8-1.4 1.2v.4c3.5-1.3 8.9-2.9 11.6.7 1.8 4.99999996.1 10.39999996-1.5 15.29999996 1.9-1.1 3-3.2 3.6-5.2.3-.9.5-1.8.7-2.7 3.9 4 7.6 8.6 9.2 14.1.3 6.6-2 13.1-5.3 18.8-2.9 5-6.8 9.4-11.3 13 1.2 0 2.3-.6 3.4-1.1.8-.4 1.5-.9 2.2-1.3.4 2.9 1.2 5.7 2.4 8.4.4-1.5 1.2-2.9 2.2-4.1-.6-2.3-1.3-4.6-1.5-7 6.6-7.2 10.8-17 10.8-26.8-1.5-7.1-6.7-12.6-11.7-17.6-.2-2.19999996 0-4.59999996-1.3-6.49999996-2.4-2.4-6.3-2.3-9.3-1.1z"/><path d="m56.3524169 17.7216131c-.5-2.2-1.4-5.5-4.2-5.4-3.4.2-6.6 2.9-8 5.8 2-2.5 5.6-5.6 8.9-3.6 3.9 5.2 2.7 12.8-.2 18.2 3.3-4 4.4-9.9 3.6-15z"/><path d="m56.4524169 36.4216131c-.8-1.5-3-1.9-4.6-2.1-.4 0-.9 0-1.3.1-2.3.3-4.6 1.3-6.5 2.6 0 0-.1 0-.2.1-1 .8-1.9 1.6-2.6 2.7 4.6-2.6 9.9-4.6 15.2-3.4z"/><path d="m215.152417 108.421613c-3.5-.5-7-1.1-10.3-2.3-.5.6-1.1 1.1-1.7 1.7 3.1 1.3 6.5 1.6 9.8 2.3 1.8.7.5 2.6-.6 3.2-6.8 4.1-15.2 5.5-23 4.3-1.3.6-2.6 1.2-3.9 2 9.7 2.8 21.1 1.1 29.2-5.2 1.9-1.2 3.8-5.2.6-6z"/><path d="m78.4524169 142.721613c2.3-3.5 6.1-.2 6.3 3 3.9-.7 5 4.5 4.3 7.4-.1.6-.2 1.1-.4 1.7 5.4 1.2 11 1.9 16.5000001.6 2.9-.4 4.7-2.9 5.2-5.7 1.7-8.2 1.8-16.8.3-25 0-1.9-1-3.6-1-5.5.7 1 1.4 2 1.9 3.1 1.2 2.5 1.6 5.2 2.1 7.8.3 1.6.4 3.3.6 4.9.4 6.5.2 13.2-2.1 19.3-1.5 4-6.3 4.7-10 5-9.9000001.3-19.8000001-2.4-28.8000001-6.5 1.3-10.3 5-20.3 10.2-29.3.5-.8 1-1.6 1.5-2.5 1.9-2.8 3.7-5.8 6.6-7.7-5.6 9.2-9.9 19.1-13.1 29.4zm2.1.4c-2.6 1.5-3.4 4.8-4.1 7.6 1 .8 2.1 1.3 3.3 1.5.6-1.8 1.6-3.6 3-5-.2-1.5-.4-3.7-2.2-4.1zm5.2 4.7c-2.3.2-3.5 2.9-4.3 4.9 1.6 1 3.7 1.6 5.6 1.1.3-1.9.7-4.7-1.2-5.9z"/><path d="m191.052417 150.021613c-.1 4.7-4.8 7-8.7 8.3-9.6 3-19.9 3.1-29.7 1.4-.7-9.3 0-18.8 2-27.9.2-.8.4-1.7.6-2.5.1-.4.2-.8.3-1.3 0-.3.2-.6.3-1 .8 0 1.5-.2 2.3-.3-1.6 7-2.4 14.1-2.6 21.2.8-.9 1.6-2.4 3-2.2 1.9.4 2.9 2.2 3.7 3.8 3.3-1.4 5.6 2.7 5.6 5.5 0 .8.1 1.5.2 2.3 5.6-.2 11.5-.9 16.6-3.6 2.4-1.1 3.8-3.6 3.6-6.2-.3-9.2-2.9-18.2-6.8-26.5.6-.3 1.2-.5 1.9-.7 5.1 8.9 8.4 19.2 7.7 29.5zm-33.5-1.8c-2.1 2-2.1 5.3-2.4 8 1.1.6 2.4.9 3.7.9.2-2 .9-3.8 1.9-5.5-.5-1.4-1.3-3.9-3.2-3.4zm6 3.4c-2.1.8-2.6 3.6-3.1 5.6 1.8.7 4.1 1 5.7-.2-.2-1.9-.3-4.9-2.6-5.4z"/></g><g transform="translate(6.852417 2.743182)"><g fill="#d7df23"><path d="m44.6 2.7784313c-4.9-2.3-10.5-3.6-15.8-2.2-11.3 2.8-21 10.2-28.8 18.6v.4c7.7-7.5 16.6-14.3 27.3-16.9 5.1-1.4 10.5-.2 15.2 1.9.3-.2.5-.4.8-.6.5-.4.9-.8 1.4-1.2z"/><path d="m66.8 26.3784313c-1.6-5.4-5.3-10-9.2-14.1-.2.9-.4 1.8-.7 2.7 3.4 3.9 6.7 8 8.3 12.9.8 6-1.8 11.8-3.7 17.3 3.2-5.7 5.6-12.2 5.3-18.8z"/><path d="m55.8 55.8784313c-.7.5-1.4.9-2.2 1.3.8 4.3 2.4 8.4 4.4 12.2 0-.1 0-.4 0-.6-.2-1.5-.2-3 0-4.5-1.2-2.7-1.9-5.5-2.4-8.4z"/></g><path d="m74.2 100.078431c-4.2 3-8.8 5.6-13.9 6.6 5 5.1 11.4 8.6 17.9 11.6 1.9-2.8 3.7-5.8 6.6-7.7.4-.3.9-.5 1.4-.8-3.9-3.3-8.4-6-11.9-9.7999997z" fill="#8dc63f"/><path d="m206.1 107.378431c-3.3-.7-6.6-1-9.8-2.3-.6.6-1.2 1.1-1.7 1.7 3 1.1 6 1.6 9.1 2.1 1 0 1.5 1 1.7 1.8 1.1-.6 2.4-2.6.6-3.2z" fill="#d7df23"/><path d="m148.7 125.378431c-14.8 1.8-30-.5-43.9-5.8 1.2 2.5 1.6 5.2 2.1 7.8 13.7 2.5 28 2.9 41.5-.8.1-.4.2-.8.3-1.3z" fill="#8dc63f"/></g><g fill="#8dc63f" transform="translate(2.752531 4.817696)"><path d="m47.2998861 1.90391758v.4c3.5-1.3 8.9-2.9 11.6.7 1.8 5 .1 10.40000002-1.5 15.30000002 1.9-1.1 3-3.2 3.6-5.2 3.4 3.9 6.7 8 8.3 12.9.8 6-1.8 11.8-3.7 17.3-2.9 5-6.8 9.4-11.3 13 1.2 0 2.3-.6 3.4-1.1.8 4.3 2.4 8.4 4.4 12.2 0-.1 0-.4 0-.6 1.4 7.6 5.4 14.5 10.1 20.6-3.2 3.8-7.7 6.3-12.2 8.3-4.5-2.3-8.7-5.6-11.8-9.6-5.7-7.2-7.9-16.5-8.1-25.5 1.2-.3 2.3-.7 3.4-1.2-7.8 0-16.2-1.6-22.2-6.9 6.7-.6 14.9-2.4 18.2-9 2 .7 4.2 1.1 6.3.4-3-.7-6-1.5-8.5-3.3.2.8.7 1.6 1.2 2.3-2.4 3.9-7 5.7-11.2 6.5-7.5 1.5-16.4 0-21.30000002-6.4-6.4-6.8-8.6-18.6-2-25.9v.4c7.70000002-7.5 16.60000002-14.30000002 27.30000002-16.90000002 5.1-1.4 10.5-.2 15.2 1.9.3-.2.5-.4.8-.6zm2.1 5.7c-3.4.2-6.6 2.90000002-8 5.80000002-2.8 3.6-4.6 8.3-4.1 12.9.2 2.4 1.4 5 3.7 6-1 .8-1.9 1.6-2.6 2.7 4.6-2.6 9.9-4.6 15.2-3.4-.8-1.5-3-1.9-4.6-2.1.3-.5.7-1.1 1-1.6 3.3-4 4.4-9.9 3.6-15-.5-2.2-1.4-5.50000002-4.2-5.40000002z"/><path d="m198.699886 104.603918c-3.6 3.3-7.8 5.9-12.1 8.3 7.8 1.2 16.2-.2 23-4.3-.3-.8-.8-1.7-1.7-1.8-3.1-.4-6.2-1-9.1-2.1z"/><path d="m107.099886 114.303918c-4.7-2.2-9.2999999-4.7-13.5999999-7.5-1.2.2-2.3.5-3.3 1.1-.5.2-.9.5-1.4.8-5.6 9.2-9.9 19.1-13.1 29.4 2.3-3.5 6.1-.2 6.3 3 3.9-.7 5 4.5 4.3 7.4 5 .8 10.2 1.4 15.0999999-.3 1.8-.6 3.2-2 3.8-3.8 2.8-7.8 2.7-16.2 2.7-24.4 0-1.9-1-3.6-1-5.5h.2z"/><path d="m183.299886 141.603918c0-8.5-2.4-16.9-5.7-24.7-7.1 2.7-14.6 4.4-22.2 5.2-1.6 7-2.4 14.1-2.6 21.2.8-.9 1.6-2.4 3-2.2 1.9.4 2.9 2.2 3.7 3.8 3.3-1.4 5.6 2.7 5.6 5.5 0 0 .3.3.3.4 4.9-.4 10-1.1 14.4-3.5 2.1-1.1 3.6-3.3 3.4-5.7z"/></g><path d="m49.7524169 23.6216131c-1.7-.6-3.1 1-4 2.2-2.2 3.2-3.4 7.6-1.7 11.2 1.9-1.3 4.2-2.3 6.5-2.6.9-2.2 1.3-4.7 1.1-7-2.7 2.8-3.6-2.1-1.9-3.8z" fill="#141615"/><g fill="#d8bfaf"><path d="m74.5524169 68.3216131c-1.4-2.1-5.5-4.9-7.2-1.8 3.1-.2 5.6 2.3 6.9 4.9 1.4 3.1 3 6.1 4.7 9.1.6-.2 1.2-.5 1.7-.7-2.4-3.7-4-7.8-6.2-11.5z"/><path d="m81.3524169 80.9216131c-.6.2-1.2.4-1.7.6 4.9 8.4 11.1 15.9 18.8 21.6999999.4-.5.8-1 1.2-1.5-7.4-5.6999999-13.5-12.8999999-18.3-20.8999999z"/><path d="m206.552417 95.5216131c-1.4-2.5-4.7-2.7-7.3-2.4-.2 0-.5.1-.7.2.5.3 1 .8 1.4 1.2 2 0 4.5.7 5.4 2.7.8 1.9 0 3.9999999-1 5.5999999 0 0 0 .2.1.3 1.5-2.2 3.2-4.8999999 2-7.5999999z"/><path d="m195.152417 102.521613h-.4c-5.4 4.4-11.7 7.4-18.2 9.9.2.3.4.5.5.8 6.5-2.6 12.9-5.8 18-10.7z"/><path d="m135.852417 116.021613c-12.5-2.1-24.9-6.2-35.3-13.5-.4.5-.8000001 1-1.2000001 1.5 10.7000001 7.6 23.5000001 11.7 36.4000001 13.7 0-.5 0-1.1 0-1.6z"/><path d="m175.552417 112.821613c-12.3 4.1-25.5 5.3-38.4 3.4v1.7c13 1.5 26.7.5 38.9-4.5-.1-.2-.4-.5-.5-.6z"/></g><path d="m74.2524169 71.5216131c-1.3-2.6-3.8-5.1-6.9-4.9-.9 2.5 0 5.2.9 7.6 1.6 3.7 3.3 7.4 5.4 10.9 1.5-1.8 3.3-3.4 5.4-4.4-1.7-3-3.3-6-4.7-9.1z" fill="#b0846c"/><path d="m79.6524169 81.6216131c-2.3.7-3.9 2.7-5.5 4.4 5.6 8.8 13.1 16.4999999 21.8 22.2999999.6-1.8 1.4-3.5 2.4-5.1-7.7-5.7999999-13.9-13.3999999-18.8-21.5999999z" fill="#b0846c"/><path d="m205.352417 97.2216131c-.9-2-3.3-2.7-5.4-2.7 0 .9 0 1.8-.3 2.7 1.9 1.5 3.6 3.3999999 4.6 5.5999999 1-1.6 1.8-3.6999999 1-5.5999999z" fill="#b0846c"/><path d="m203.752417 104.221613c-1-2.3-2.5-4.4999999-4.5-5.8999999-1.4 1.4-2.8 2.8999999-4.3 4.2999999h.4c-5.1 4.8-11.6 8-18 10.7 1.1 1.9 1.7 4.1 1.9 6.3 9.2-3.2 18-8.1 24.7-15.3z" fill="#b0846c"/><path d="m99.4524169 104.021613c-1 1.6-1.9 3.3-2.4 5.2 11.2000001 7.5 24.0000001 12.8 37.4000001 14.6.8-2 1.3-4.1 1.4-6.2-12.9-2-25.7-6.1-36.4000001-13.7z" fill="#b0846c"/><path d="m177.952417 119.921613c0-2.3-.8-4.5-1.9-6.6-12.2 5-25.9 6-38.9 4.5-.2 2.2-.8 4.2-1.4 6.3 14.1 2 28.8.5 42.2-4.2z" fill="#b0846c"/><path d="m198.452417 93.0216131c.2 0 .6 0 .7.1 2.6-.2 5.9 0 7.3 2.4 1.2 2.7-.5 5.3999999-2 7.5999999 0 0 0-.2-.1-.3-1.1-2.2-2.7-4.0999999-4.6-5.5999999.2-.9.3-1.8.3-2.7-.5-.4-.9-.8-1.4-1.2 0 0-.2 0-.3.1 0 .8-.1 1.6-.3 2.4-.6 1.3-1.7 2.3-2.7 3.3-7.5 6.5999999-17 10.5999999-26.5 12.9999999-.8.1-1.5.2-2.3.5-.9.3-1.7.5-2.6.7-19.1 3.4-39.7.2-56.5-9.6-.5-.6-1.2-.8-1.9-1.1-.5-.3-1-.6-1.5-1-10.2000001-6.8999999-18.1000001-16.7999999-23.8000001-27.6999999-.3-.7-.5-1.3-1-1.9-1.8-4.9-5.9-10.1-11.8-9.2-1.1 1.1-1.8 2.6-2.2 4.1-.3 1.5-.3 3 0 4.5 1.4 7.6 5.4 14.5 10.1 20.6.6.8 1.3 1.6 1.9 2.4 1.3 1.5 2.7 3.1 4.1 4.5.7.7 1.3 1.3999999 2 1.9999999 4.1 3.9 8.5 7.4 13.2 10.5 4.3000001 2.9 8.9000001 5.3 13.6000001 7.5 14.3 6.5 30.2 9.3 45.9 8 .8 0 1.5-.2 2.3-.3 7.6-.8 15.1-2.5 22.2-5.2.4-.2.8-.3 1.2-.5.6-.3 1.2-.5 1.9-.7.7-.3 1.3-.7 2.1-.8 1.2-.8 2.6-1.3 3.9-2 4.3-2.3 8.5-5 12.1-8.3.6-.5 1.2-1.1 1.7-1.7.6-.6 1.2-1.1 1.7-1.7 1.8-2.4 4-4.8 4.6-7.7999999.2-5.3-7-8.3-11-5.3zm-130.3000001-18.8c-.9-2.4-1.8-5.1-.9-7.6 1.7-3.1 5.8-.3 7.2 1.8 2.2 3.8 3.8 7.9 6.2 11.5-.6.3-1.1.5-1.7.7-2.1 1-3.9 2.6-5.4 4.4-2.1-3.5-3.8-7.1-5.4-10.9zm27.8 34.1999999c-8.7-5.7-16.2-13.4999999-21.8-22.2999999 1.5-1.8 3.2-3.7 5.5-4.4.6-.4 1.1-.6 1.7-.7 4.8 8 10.9 15.2 18.3 20.8999999-.4.5-.8 1-1.2 1.5-1 1.6-1.9 3.3-2.4 5.1zm1 .9c.5-1.9 1.4-3.6 2.4-5.2.4-.5.8000001-1 1.2000001-1.5 10.4 7.3 22.8 11.4 35.3 13.5v1.6c-.1 2.1-.7 4.2-1.4 6.2-13.4-1.9-26.2-7.1-37.4000001-14.6zm38.7000001 14.9c.6-2.1 1.2-4.1 1.4-6.3 0-.6 0-1.1 0-1.7 12.8 1.9 26.1.7 38.4-3.4.1.2.4.5.5.6 1.1 2 1.8 4.2 1.9 6.6-13.5 4.7-28.1 6.1-42.2 4.2zm43.4-4.7c-.2-2.2-.9-4.3-1.9-6.3-.2-.3-.4-.5-.5-.8 6.5-2.4 12.9-5.4 18.2-9.9 1.5-1.4 3-2.8999999 4.3-4.2999999 2.1 1.5 3.6 3.5999999 4.5 5.8999999-6.6 7.2-15.5 12.1-24.7 15.3z" fill="#1a1a1a"/><g fill="#39b54a" transform="translate(40.606838 65.221613)"><path d="m2.34557857.1c-.8.2-1.5.3-2.3.4-.4 9.5 1.8 19.5 7.9 27 3.00000003 3.7 6.80000003 6.7 11.00000003 8.9 1.1-.4 2.2-.8 3.3-1.3-4.5-2.3-8.7-5.6-11.8-9.6-5.70000003-7.2-7.90000003-16.5-8.10000003-25.5z"/><path d="m140.845579 55.9c-.4.2-.8.3-1.2.5 3.3 7.8 5.7 16.2 5.7 24.7.2 2.4-1.3 4.6-3.4 5.7-4.4 2.4-9.5 3.2-14.4 3.5 0 0-.3-.3-.3-.4 0 .8.1 1.5.2 2.3 5.6-.2 11.5-.9 16.6-3.6 2.4-1.1 3.8-3.6 3.6-6.2-.3-9.2-2.9-18.2-6.8-26.5z"/><path d="m69.7455786 84.5c1.7-8.2 1.8-16.8.3-25 0 8.2.1 16.6-2.7 24.4-.5 1.8-2 3.2-3.8 3.8-4.9 1.7-10.1 1-15.1.3-.1.6-.2 1.1-.4 1.7 5.4 1.2 11 1.9 16.5.6 2.9-.4 4.7-2.9 5.2-5.7z"/></g><g fill="#14331f" transform="translate(55.646115 92.121613)"><path d="m21.3063016 2.4c-.7-.8-1.3-1.6-1.9-2.4-3.2 3.8-7.7 6.3-12.20000002 8.3-1.1.5-2.2.9-3.3 1.3-1.3.4-2.5 1-3.9 1-.2 4.3 4.4 6.8 8.2 6.8 5.10000002 6.4 12.40000002 10.5 19.60000002 14 .5-.8 1-1.6 1.5-2.5-6.4-3.1-12.8-6.5-17.9-11.6 5.1-1 9.7-3.6 13.9-6.6.7-.5 1.4-1.1 2-1.8-.7-.7-1.4-1.3-2-2-3.3 3.3-7.8 5.4-12.3 6.4-2.8.4-6.30000002.4-8.40000002-1.8 5.90000002-2.2 12.00000002-4.7 16.70000002-9.1z"/><path d="m99.5063016 37.2c-13.5 3.7-27.8 3.3-41.5.8.3 1.6.4 3.3.6 4.9 0-.7 0-1.3-.1-2 13.4 2.4 27.3 2.4 40.5-1.2.2-.8.4-1.7.6-2.5z"/></g><g fill="#009444" transform="translate(60.252417 94.521613)"><path d="m16.7 0c-4.7 4.4-10.7 6.9-16.7 9.1 2.1 2.3 5.6 2.2 8.4 1.8 4.6-1 9-3.1 12.3-6.4-1.4-1.4-2.8-3-4.1-4.5z"/><path d="m36 17c-4.7-3.1-9.1-6.6-13.2-10.5-.6.6-1.3 1.2-2 1.8 3.5 3.8 8 6.5 11.9 9.8 1.1-.5 2.2-.9 3.3-1.1z"/><path d="m95.5 32.6c-15.7 1.3-31.6-1.5-45.9-8h-.2c.7 1.1 1.4 2.1 1.9 3.2 13.9 5.2 29.1 7.5 43.9 5.8 0-.3.2-.6.3-1z"/></g><path d="m197.852417 95.8216131c-.6 1.3-1.7 2.3-2.7 3.3-7.5 6.5999999-17 10.5999999-26.5 12.9999999-.8.1-1.5.2-2.3.5-.9.3-1.7.5-2.6.7-19.1 3.4-39.7.2-56.5-9.6-.5-.6-1.2-.8-1.9-1.1-.5-.3-1-.6-1.5-1-10.2000001-6.8999999-18.1000001-16.7999999-23.8000001-27.6999999 5.2-.4 9.6-2.7 13.7-5.5 6.9000001 12.3 24.3000001 22.1 44.9000001 25.3 4.6.7 9.2 1.1 13.7 1.1 16.4 0 30.7-4.8 38.4-13.1 3 4.4 5.5 9 7.3 14z" fill="url(#b)"/><path d="m176.152417 65.5216131c-8.5 4-21.8 5.1-35.6 3-12.2-1.9-23.5-6.2-30.7-11.7 3.1-1.9 17.2-9.8 39.6-5.6 9.3 1.8 19.2 8 26.7 14.4z" fill="url(#c)"/><path d="m189.352417 80.2216131c-9.2 10.4-29.2 15.1-50.6 11.8-20.1-3.1-37-12.7-43.6000001-24.5 4.3-3.2 8.3000001-6.8 12.8000001-9.5 7.5 6 19.1 10.5 32.2 12.6 4.7.7 9.3 1.1 13.7 1.1 9.4 0 17.8-1.6 23.8-4.6 1.4 1.3 2.7 2.5 3.8 3.7 2.8 3 5.4 6.2 7.8 9.5z" fill="url(#d)"/><path d="m162.852417 54.0216131c-6.8-5-21.9-5.4-21.9-5.4s-11.8 1.5-23 7.3c6.4 3.1 14.3 5.5 22.6 6.8 11.8 1.8 23.3 1.2 31.7-1.5-3.8-3-7.2-5.6-9.5-7.3z" fill="#486c9e"/><path d="m187.952417 75.9216131c-.3.3-.7.6-1 .9-10 8.7-28.5 12.4-48.1 9.3-15.6-2.4-29.3-8.7-37.7-17 1.6-1.3 3.2-2.8 4.8-4.5s3.3-3.2 5.2-4.6c.6-.4 1.2-.9 1.8-1.2 7.1 4.5 17 8 27.7 9.6 13.7 2.1 27.1 1 35.6-3-1-.8-2-1.6-3-2.4.3-.1.7-.2 1-.3 4.8 4 9.9 8.6 13.8 13.2z" fill="#486c9e"/><path d="m196.952417 91.5216131c-.2.2-.4.5-.6.7-.4.4-.8.8-1.2 1.2-7.5 6.5999999-17 10.5999999-26.5 12.9999999-.8.1-1.5.2-2.3.5-.9.3-1.7.5-2.6.7-19.1 3.4-39.7.2-56.5-9.5999999-.5-.6-1.2-.8-1.9-1.1-.5-.3-1-.6-1.5-1-7.4000001-5-13.5000001-11.5-18.5000001-18.8 3-.8 6.9-2.1 11-4.6.6-.3 1.1-.7 1.7-1.1 7.8000001 9.9 23.1000001 17.7 40.8000001 20.5 21.4 3.3 41.4-1.4 50.6-11.8-.4-.6-.8-1.2-1.3-1.7.4-.3.7-.6 1.1-.9 1.4 1.7 2.5 3.5 3.4 5.1 2.9 5.5 4 7.8 4.4 8.8z" fill="#486c9e"/><path d="m198.452417 93.0216131s-.2 0-.3 0c-2.6-11.6-10.6-21.1-18.9-29.2-8.9-8.3-19.9-14.9-32.1-16.4-10.5-1.5-21.6-1-31.5 3.1-7.4 2.9-13.8 7.7-20.0000001 12.6-5 3.8-10.2 7.9-16.6 9.1.4.6.7 1.3 1 1.9 5.2-.4 9.6-2.7 13.7-5.5.8 1.4 1.7 2.7 2.7 4 8.1000001 10.4 23.9000001 18.5 42.2000001 21.4 4.6.7 9.2 1.1 13.7 1.1 16.4 0 30.7-4.8 38.4-13.1 2.2 3.3 4.2 6.7 5.8 10.3.5 1.2 1 2.4 1.5 3.7.2-.8.3-1.6.3-2.4 0 0 .2 0 .3-.1.2 0 .5-.2.7-.2-.2 0-.6 0-.7-.1zm-49-41.8c8.1 1.5 16.6 6.5 23.7 11.9 1 .8 2 1.6 3 2.4-8.5 4-21.8 5.1-35.6 3-10.6-1.7-20.5-5.1-27.7-9.6-1.1-.7-2.1-1.4-3-2.1 3.1-1.9 17.2-9.8 39.6-5.6zm-10.6 40.8c-17.8-2.8-33-10.5-40.8000001-20.5-1-1.3-2-2.7-2.7-4.1 4.3-3.2 8.3000001-6.8 12.8000001-9.5 1 .8 2 1.5 3.1 2.2 7.4 4.9 17.7 8.6 29.1 10.4 4.7.7 9.3 1.1 13.7 1.1 9.4 0 17.8-1.6 23.8-4.6 1.4 1.3 2.7 2.5 3.8 3.7 1.8 2 3.6 4.1 5.3 6.2.4.5.8 1.1 1.2 1.6.4.6.9 1.2 1.3 1.7-9.2 10.4-29.2 15.1-50.6 11.8z" fill="#1a1a1a"/><circle cx="102.752417" cy="90.221613" fill="#1a1a1a" r="2.4"/><g transform="translate(101.002417 87.821613)"><path d="m2.25 4.6c-.6 0-1.2-.3-1.6-.7s-.6-1-.6-1.6.3-1.2.7-1.6 1-.6 1.5-.6 1.2.3 1.6.7c.9.9.8 2.3 0 3.2-.4.4-1 .6-1.5.6z" fill="#28db39"/><path d="m2.25.2c.6 0 1.1.2 1.5.7.8.9.8 2.2 0 3-.4.4-.9.6-1.5.6s-1.1-.2-1.5-.7c-.4-.4-.6-1-.6-1.5s.3-1.1.7-1.5.9-.6 1.5-.6m0-.2c-.6 0-1.2.2-1.6.6-1 .9-1 2.4 0 3.4.5.5 1.1.7 1.7.7s1.2-.2 1.6-.6c1-.9 1-2.4 0-3.4-.5-.5-1.1-.7-1.7-.7z" fill="#1a1a1a"/></g><circle cx="97.652417" cy="85.021613" fill="#1a1a1a" r="2.4"/><g transform="translate(95.758781 82.621613)"><path d="m2.39363584 4.6c-.5 0-1-.2-1.4-.5-.5-.4-.8-.9-.9-1.5 0-.6 0-1.2.5-1.7.4-.6 1.1-.9 1.8-.9s1 .2 1.4.5c1 .8 1.2 2.2.4 3.2-.4.6-1.1.9-1.8.9z" fill="#28db39"/><path d="m2.39363584 0v.2c.5 0 .9.2 1.3.4.9.7 1.1 2.1.4 3-.4.5-1 .8-1.7.8s-.9-.2-1.3-.4c-.4-.3-.7-.8-.8-1.4 0-.6 0-1.1.4-1.6s1-.8 1.7-.8zm0 0c-.7 0-1.4.3-1.9.9-.8 1-.6 2.5.4 3.3.4.3.9.5 1.5.5s1.4-.3 1.9-.9c.8-1 .6-2.5-.4-3.3-.4-.3-.9-.5-1.5-.5z" fill="#1a1a1a"/></g><circle cx="92.652417" cy="79.121613" fill="#1a1a1a" r="2.4"/><g transform="translate(90.958781 76.921613)"><path d="m2.29363584 4.6c-.7 0-1.4-.3-1.8-.9-.8-1-.6-2.4.4-3.2.4-.3.9-.5 1.4-.5.7 0 1.4.3 1.8.9.4.5.5 1.1.4 1.7 0 .6-.4 1.1-.9 1.5-.4.3-.9.5-1.4.5z" fill="#28db39"/><path d="m2.29363584.2c.7 0 1.3.3 1.7.8.7.9.5 2.3-.4 3-.4.3-.8.4-1.3.4-.7 0-1.3-.3-1.7-.8-.3-.5-.5-1-.4-1.6 0-.6.4-1.1.8-1.4s.8-.4 1.3-.4m0-.2c-.5 0-1 .2-1.4.5-1 .8-1.2 2.3-.4 3.3.5.6 1.2.9 1.9.9s1-.2 1.4-.5c1-.8 1.2-2.3.4-3.3-.5-.6-1.2-.9-1.9-.9z" fill="#1a1a1a"/></g></g><g transform="translate(6 183)"><path d="m0 51v-50h11.5843521c7.591687 0 11.4156479 4.04656319 11.4156479 12.1396896v25.7206208c0 8.0931264-3.8239609 12.1396896-11.4156479 12.1396896zm5.62347188-5.0443459h5.79217602c4.0488998 0 5.9608802-1.9955654 5.9608802-6.8736142v-26.2195122c0-4.87804876-1.8557457-6.76274943-5.9608802-6.76274943h-5.79217602z" fill="#486c9e"/><path d="m28 51v-50h11.0334129c7.849642 0 11.1431981 3.54767184 11.1431981 11.3636364v2.0509977c0 5.3769402-1.8114559 8.6474502-5.4892602 9.9778271v.1662971c4.1718377 1.2195122 6.3126492 4.7117517 6.3126492 10.4767184v4.2682927c0 7.7605322-3.8424821 11.6407982-11.3627685 11.6407982h-11.5823389zm5.4892601-28.6031042h4.6658712c4.4463007 0 6.4773269-1.9955654 6.4773269-6.8736142v-2.5498891c0-4.87804882-1.646778-6.87361423-5.8186157-6.87361423h-5.379475v16.29711753zm0 23.5587583h6.0930788c4.0071599 0 5.8735084-1.940133 5.8735084-6.7073171v-4.2682927c0-5.4323725-1.9212411-7.4833702-6.9713604-7.4833702h-4.9403342v18.5144124z" fill="#486c9e"/><g fill="#1a1a1a"><path d="m67 40.1767241v-2.7456896h3.2153846v2.9698276c0 5.4913793 2.8205128 8.5172413 7.7282051 8.5172413 4.9076924 0 7.7282052-3.025862 7.7282052-8.5172413s-.6769231-4.8189655-1.974359-6.7801724c-1.2410256-1.9612069-3.5538462-4.2586207-6.825641-6.7801725-3.723077-2.8017241-6.2615385-5.3232758-7.7282052-7.5646551-1.3538461-2.2413793-2.0871794-4.8189655-2.0871794-7.7327587 0-7.22844823 4.0051282-11.5431034 10.8871794-11.5431034 6.8820513 0 10.774359 4.25862069 10.774359 11.7672414v1.9612069h-3.2153846v-2.1853449c0-5.49137926-2.7076923-8.51724133-7.5589744-8.51724133-4.851282 0-7.5589743 3.02586207-7.5589743 8.29310343 0 5.2672414.6769231 4.4827586 1.974359 6.4439655 1.2974359 1.849138 3.6102564 4.0905173 7.051282 6.7801724 3.6102564 2.8017242 6.0923077 5.4353449 7.5025641 7.6767242 1.3538462 2.2413793 2.0871795 4.9310345 2.0871795 8.012931 0 7.4525862-4.0051282 11.7672414-11.0564103 11.7672414-7.051282 0-10.8871794-4.3146552-10.8871794-11.7672414z"/><path d="m114 24.3849693v26.6150307h-3.258427v-26.1042945c0-5.3343558-1.966292-7.9447853-5.955056-7.9447853s-7.52809 3.9723927-7.52809 10.3849694v23.6641104h-3.258427v-36.2622699h2.8089888v5.2776073c1.6853932-4.0291411 4.5505622-6.0153374 8.7078652-6.0153374s8.483146 3.4616564 8.483146 10.3849693z"/><path d="m135.943396 51.2766917c-.226415-.9458646-.45283-2.7819549-.509434-5.4526315-1.698113 4.0616541-4.754717 6.1759398-9.169811 6.1759398s-8.264151-3.2270677-8.264151-8.6240602c0-5.3969924 2.490566-8.4571428 9.283019-11.406015 3.45283-1.5022556 5.603773-2.5593985 6.509434-3.2827068.849056-.7789473 1.301887-1.8360902 1.301887-3.2827067v-1.0015038c0-4.0616541-2.320755-6.5097744-6.339623-6.5097744s-6.792453 2.4481203-6.792453 6.7879699v.7789474h-3.056604v-.6676692c0-6.287218 3.792453-9.7924812 9.905661-9.7924812 6.113207 0 9.45283 3.5052632 9.45283 9.7924812v17.3593985c0 4.1729323.226415 7.1774436.735849 9.124812zm-.849056-12.4075188v-8.2902255c-.566038.9458646-2.830189 2.281203-6.849057 4.006015-4.981132 2.0586466-6.90566 4.562406-6.90566 8.512782 0 3.9503759 2.037735 6.0090225 5.773585 6.0090225 3.735849 0 8.037735-3.9503759 8.037735-10.237594z"/><path d="m165 25.106933v16.4030552c0 6.7379554-2.888889 10.1621622-8.5 10.1621622s-6.555556-1.7673325-8.277778-5.2467685v15.5746181h-3.222222v-46.2820212h2.722222v5.4676851c1.722222-4.1421856 4.666667-6.1856639 8.777778-6.1856639s8.5 3.3689777 8.5 10.106933zm-3.222222.3313749c0-5.025852-2-7.6216216-6-7.6216216s-7.611111 3.921269-7.611111 10.106933v10.8249118c0 6.185664 3.055555 10.1069331 7.611111 10.1069331 4.555555 0 6-2.5405406 6-7.6216217z"/><path d="m192 25.106933v16.4030552c0 6.7379554-2.888889 10.1621622-8.5 10.1621622s-6.555556-1.7673325-8.277778-5.2467685v15.5746181h-3.222222v-46.2820212h2.722222v5.4676851c1.722222-4.1421856 4.666667-6.1856639 8.777778-6.1856639s8.5 3.3689777 8.5 10.106933zm-3.222222.3313749c0-5.025852-2-7.6216216-6-7.6216216s-7.611111 3.921269-7.611111 10.106933v10.8249118c0 6.185664 3.055555 10.1069331 7.611111 10.1069331 4.555555 0 6-2.5405406 6-7.6216217z"/><path d="m218 26.406015v7.1774436h-16.79558v7.2887219c0 5.5082706 2.265193 8.2345864 6.740331 8.2345864 4.475139 0 6.906078-2.7263158 6.906078-8.2345864v-.8345865h3.149171v.556391c0 7.4-3.535912 11.406015-10.055249 11.406015s-9.944751-4.006015-9.944751-11.406015v-14.18797c0-7.4 3.425414-11.406015 9.944751-11.406015s10.055249 4.006015 10.055249 11.406015zm-16.79558 4.2842106h13.646409v-4.5624061c0-5.5082706-2.265194-8.2345864-6.906078-8.2345864s-6.740331 2.7263158-6.740331 8.2345864z"/><path d="m238 14.4539877v3.2914111c-.707113-.3404908-1.468619-.5107362-2.393305-.5107362-4.949791 0-7.451883 4.142638-7.451883 12.4279141v21.3374233h-3.154812v-36.2622699h2.665272v5.845092c1.414226-4.3696319 3.970711-6.5828221 7.832636-6.5828221s1.794979.1702454 2.447699.4539877z"/></g></g></g></svg>