<?xml version="1.0" encoding="iso-8859-1"?>
<!-- Generator: Adobe Illustrator 21.1.0, SVG Export Plug-In . SVG Version: 6.00 Build 0)  -->
<svg version="1.1" id="Layer_1" xmlns="http://www.w3.org/2000/svg" xmlns:xlink="http://www.w3.org/1999/xlink" x="0px" y="0px"
	 viewBox="0 0 306 306" style="enable-background:new 0 0 306 306;" xml:space="preserve">
<g>
	<path style="fill:#FFFFFF;" d="M100.495,23.185c9.718,0.085,19.436,0.045,29.157,0.02c0.793-0.062,1.864,0.173,2.331-0.666
		c0.526-1.084,0.193-2.351-0.105-3.455c-0.747-2.413-2.899-4.15-5.303-4.758c-1.714-3.184-5.172-5.254-8.774-5.326
		c-2.812,0.153-5.489,1.447-7.35,3.559c-1.633-0.523-3.374-0.989-5.081-0.578c-3.925,0.637-7.066,4.444-6.772,8.441
		C98.509,21.605,98.94,23.414,100.495,23.185z M107.303,15.031c1.361-0.023,2.361,1.101,3.638,1.306
		c1.175-0.046,1.551-1.388,2.309-2.08c1.937-2.074,5.29-2.625,7.765-1.211c1.411,0.718,2.374,2.024,3.053,3.419
		c0.385,0.986,1.577,0.895,2.416,1.215c1.149,0.339,1.897,1.342,2.472,2.332c-9.101,0.052-18.205,0.268-27.302,0.026
		C101.827,17.229,104.416,14.685,107.303,15.031z"/>
	<path style="fill:#FFFFFF;" d="M138.964,122.291c3.308-4.281,4.079-10.191,2.466-15.299c-1.189-3.957-4.053-7.282-7.648-9.267
		c2.005-0.539,3.693,0.892,5.555,1.303c1.136,0.199,1.678-0.973,1.829-1.897c3.285-0.16,6.632,0.327,9.662,1.633
		c5.427,2.249,9.578,7.02,11.687,12.435c1.845,4.637,2.028,9.829,0.943,14.668c-0.336,1.003,0.614,2.197,1.695,1.936
		c0.761-0.01,1.28-0.692,1.398-1.391c1.57-6.394,0.686-13.332-2.357-19.164c-2.214-4.353-5.754-7.935-9.914-10.459
		c5.14,0.134,10.279,0.271,15.403,0.715c14.247,1.143,28.366,3.808,42.064,7.886c0.862,0.248,2.133,0.542,2.629-0.464
		c0.62-0.957-0.088-2.214-1.156-2.4c-7.471-2.25-15.072-4.079-22.753-5.479c0-11.713,0.036-23.426-0.039-35.139
		c0.059-0.627-0.206-1.326-0.819-1.581c-1.617-0.702-3.309-1.208-4.941-1.861c-0.025-3.873-0.006-7.742-0.071-11.612
		c-0.043-0.702,0.071-1.688-0.758-1.982c-2.423-1.025-4.943-1.806-7.396-2.746c0.004-3.436,0.023-6.874-0.013-10.309
		c0.003-0.627-0.032-1.411-0.702-1.698c-2.41-1.045-4.924-1.835-7.377-2.77c-0.052-2.978,0.03-5.962-0.114-8.94
		c0.089-0.908-0.842-1.296-1.541-1.544c-3.344-1.215-6.69-2.43-10.038-3.635c-1.191-0.395-2.354-0.918-3.592-1.146
		c-3.588,0.983-7.03,2.452-10.547,3.664c-1.336,0.522-2.743,0.898-4.02,1.554c-0.672,0.353-0.607,1.179-0.633,1.819
		c-0.029,2.746-0.049,5.492-0.049,8.239c-2.315,0.849-4.65,1.639-6.942,2.544c-0.568,0.196-1.192,0.598-1.114,1.293
		c-0.121,3.641-0.033,7.292-0.045,10.936c-2.459,0.931-4.97,1.721-7.387,2.759c-0.708,0.203-0.761,1.002-0.767,1.613
		c-0.072,3.99-0.072,7.984-0.088,11.974c-1.629,0.646-3.324,1.13-4.921,1.852c-0.768,0.294-0.885,1.172-0.842,1.887
		c-0.042,11.605-0.026,23.211-0.02,34.813c-7.654,1.42-15.239,3.223-22.691,5.479c-0.829,0.189-1.636,0.918-1.423,1.849
		c0.036,0.744,0.741,1.113,1.316,1.42c9.368-2.727,18.871-5.029,28.523-6.489c3.582-0.562,7.419-0.366,10.733,1.208
		c5.11,2.58,7.811,8.791,6.684,14.335c-0.637,3.769-3.053,7.223-6.482,8.961c-0.793,0.499-1.953,0.728-2.259,1.737
		c-0.34,1.149,0.94,2.295,2.05,1.835C134.863,126.418,137.133,124.475,138.964,122.291z M184.644,61.854
		c0.862,0.304,1.721,0.621,2.583,0.931c0.01,11.23,0,22.459,0.02,33.692c-0.853-0.13-1.704-0.271-2.551-0.431
		C184.586,84.65,184.671,73.251,184.644,61.854z M176.475,71.559c0.973,0.316,1.946,0.862,3.004,0.722
		c1.198-0.216,1.545-2.025,0.532-2.691c-1.116-0.633-2.377-0.95-3.569-1.407c0-0.552,0.004-1.104,0.007-1.656
		c0.895,0.294,1.77,0.748,2.727,0.803c1.336,0,1.982-1.972,0.859-2.73c-1.105-0.649-2.364-0.966-3.55-1.423
		c-0.02-0.552-0.033-1.101-0.043-1.649c0.901,0.291,1.783,0.709,2.736,0.81c1.297-0.042,1.985-1.94,0.886-2.74
		c-1.12-0.656-2.403-0.97-3.599-1.457c-0.007-0.545-0.01-1.09-0.01-1.632c0.892,0.31,1.772,0.725,2.729,0.79
		c1.234-0.052,1.946-1.747,1.016-2.625c-1.123-0.761-2.501-1.032-3.745-1.548c-0.007-0.542-0.007-1.084,0.003-1.626
		c0.895,0.274,1.75,0.745,2.7,0.81c1.323-0.023,1.999-1.956,0.898-2.74c-1.107-0.682-2.4-0.983-3.605-1.433
		c-0.01-0.872-0.003-1.744,0.01-2.616c1.695,0.601,3.39,1.215,5.078,1.838c-0.01,16.089-0.003,32.177-0.003,48.266
		c-1.686-0.255-3.38-0.415-5.065-0.653c-0.025-1.123-0.029-2.247-0.025-3.366c0.907,0.274,1.779,0.806,2.749,0.816
		c1.258-0.068,1.939-1.861,0.924-2.684c-1.116-0.718-2.445-1.005-3.657-1.525c-0.003-0.539-0.003-1.078-0.003-1.613
		c0.914,0.336,1.842,0.633,2.775,0.911c0.461-0.31,1.062-0.539,1.264-1.107c0.398-0.754-0.144-1.744-0.904-2.011
		c-1.028-0.447-2.1-0.777-3.142-1.182c-0.003-0.545-0.003-1.091,0.004-1.636c0.888,0.294,1.753,0.754,2.703,0.816
		c1.326-0.026,2.005-1.966,0.896-2.746c-1.12-0.663-2.403-0.97-3.605-1.43c-0.003-0.545,0.003-1.091,0.013-1.636
		c1.127,0.249,2.413,1.287,3.523,0.47c0.869-0.575,0.833-1.985-0.064-2.511c-1.11-0.591-2.339-0.895-3.494-1.372
		C176.438,72.63,176.455,72.094,176.475,71.559z M168.337,75.774c-0.007-0.637-0.01-1.267-0.01-1.9
		c0.869,0.252,1.744,0.816,2.681,0.578c1.153-0.35,1.438-2.178,0.337-2.756c-0.954-0.529-2.012-0.816-3.024-1.208
		c0-0.637,0-1.27,0-1.904c0.771,0.248,1.532,0.611,2.358,0.64c1.449-0.056,1.835-2.371,0.538-2.926
		c-0.931-0.435-1.916-0.725-2.87-1.091c-0.013-0.637-0.02-1.273-0.023-1.907c0.989,0.219,2.168,1.123,3.099,0.3
		c0.833-0.555,0.816-1.91,0.003-2.472c-0.973-0.539-2.057-0.829-3.099-1.205c-0.003-0.64-0.007-1.28-0.007-1.917
		c0.862,0.245,1.747,0.754,2.675,0.539c1.113-0.284,1.329-1.953,0.523-2.649c-0.993-0.588-2.133-0.853-3.188-1.309
		c0-0.614,0.004-1.231,0.01-1.845c0.869,0.242,1.747,0.725,2.678,0.529c1.068-0.369,1.411-1.949,0.487-2.651
		c-0.974-0.627-2.123-0.885-3.19-1.303c0.006-0.633,0.01-1.267,0.016-1.9c0.774,0.239,1.532,0.64,2.361,0.64
		c1.254-0.072,1.845-1.93,0.839-2.69c-0.973-0.647-2.142-0.908-3.216-1.342c0.006-0.627,0.013-1.251,0.022-1.875
		c0.872,0.232,1.75,0.754,2.678,0.549c1.127-0.382,1.404-2.09,0.392-2.746c-0.97-0.539-2.054-0.814-3.086-1.199
		c0-0.637,0.004-1.277,0.014-1.914c0.917,0.222,1.942,0.97,2.88,0.451c0.963-0.474,1.143-2.018,0.209-2.609
		c-0.973-0.542-2.054-0.849-3.096-1.228c-0.007-0.904-0.003-1.812,0.01-2.717c1.604,0.598,3.246,1.094,4.82,1.763l0.163,0.212
		c0.059,20.647,0.01,41.298,0.025,61.945c-1.668-0.183-3.344-0.297-5.016-0.414c-0.01-1.489-0.013-2.975,0.017-4.461
		c0.947,0.209,2.012,0.966,2.955,0.382c0.915-0.503,0.986-1.972,0.147-2.57c-0.989-0.525-2.074-0.829-3.122-1.205
		c-0.003-0.644-0.007-1.284,0-1.923c0.787,0.274,1.587,0.529,2.396,0.748c0.777-0.317,1.254-0.983,1.424-1.796
		c-0.506-1.659-2.508-1.704-3.833-2.374c0.003-0.624,0.01-1.248,0.013-1.868c0.862,0.258,1.734,0.738,2.665,0.558
		c0.698-0.176,0.911-0.94,1.159-1.518C171.749,76.463,169.669,76.451,168.337,75.774z M154.616,15.857
		c3.497,1.267,6.994,2.531,10.491,3.795c-0.007,18.756-0.003,37.513-0.003,56.269c0.029,6.035-0.068,12.072,0.052,18.107
		c-3.507-0.258-7.027-0.274-10.544-0.333C154.619,67.748,154.612,41.801,154.616,15.857z M141.032,19.662
		c3.487-1.271,6.975-2.55,10.469-3.798c0.033,25.944,0.003,51.888,0.02,77.831c-3.501,0.072-7.004,0.055-10.495,0.346
		C141.048,69.247,141.041,44.453,141.032,19.662z M118.889,96.474c0.01-11.23,0.026-22.46,0.023-33.689
		c0.855-0.317,1.714-0.633,2.577-0.94c0.013,11.406,0,22.812,0.01,34.218C120.629,96.21,119.761,96.347,118.889,96.474z
		 M126.941,77.384c0.956-0.059,1.832-0.522,2.74-0.797c0.01,0.543,0.016,1.087,0.023,1.633c-1.208,0.46-2.505,0.761-3.622,1.427
		c-1.074,0.78-0.444,2.661,0.849,2.74c0.973-0.033,1.852-0.52,2.762-0.814c0.004,0.542,0.004,1.091,0,1.636
		c-1.113,0.441-2.272,0.774-3.353,1.293c-0.61,0.238-0.865,0.967-0.816,1.577c0.125,0.725,0.81,1.068,1.369,1.427
		c0.943-0.271,1.881-0.572,2.808-0.905c-0.013,0.549-0.023,1.097-0.033,1.646c-1.205,0.493-2.527,0.761-3.622,1.486
		c-1.032,0.78-0.385,2.612,0.859,2.687c0.963-0.052,1.848-0.499,2.756-0.793c0.02,1.114,0.032,2.23,0.023,3.344
		c-1.694,0.226-3.399,0.398-5.087,0.663c0-16.086,0.007-32.171-0.003-48.256c1.685-0.64,3.376-1.264,5.081-1.854
		c0.023,0.865,0.033,1.727,0.033,2.592c-1.218,0.48-2.527,0.784-3.654,1.466c-1.045,0.781-0.402,2.665,0.881,2.72
		c0.97-0.026,1.845-0.532,2.759-0.813c0,0.546,0.004,1.09,0,1.636c-1.198,0.474-2.468,0.797-3.598,1.43
		c-1.094,0.787-0.477,2.665,0.839,2.74c0.967-0.045,1.855-0.483,2.763-0.787c-0.01,0.542-0.016,1.087-0.023,1.632
		c-1.227,0.519-2.589,0.784-3.693,1.551c-0.947,0.83-0.278,2.593,0.943,2.645c0.967-0.098,1.865-0.509,2.779-0.82
		c-0.017,0.549-0.03,1.097-0.042,1.649c-1.195,0.483-2.485,0.787-3.592,1.463c-1.058,0.771-0.447,2.667,0.855,2.697
		c0.973-0.029,1.865-0.506,2.776-0.796c0.003,0.548,0.003,1.1,0.01,1.652c-1.195,0.457-2.465,0.767-3.579,1.414
		c-0.924,0.614-0.731,2.159,0.261,2.6c1.127,0.362,2.227-0.307,3.279-0.63c0.016,0.532,0.036,1.064,0.055,1.6
		c-1.221,0.532-2.58,0.79-3.703,1.525C124.995,75.517,125.681,77.283,126.941,77.384z M132.849,32.498
		c1.655-0.578,3.295-1.195,4.95-1.764c0.016,0.911,0.016,1.822,0.01,2.733c-1.175,0.467-2.521,0.695-3.478,1.571
		c-0.336,0.666-0.271,1.655,0.382,2.116c0.934,0.771,2.119-0.078,3.099-0.307c0,0.637,0.003,1.273,0.006,1.913
		c-1.028,0.382-2.116,0.643-3.073,1.198c-1.097,0.689-0.656,2.681,0.669,2.802c0.83-0.013,1.604-0.375,2.39-0.611
		c0.003,0.624,0.007,1.251,0.01,1.878c-0.966,0.372-1.962,0.669-2.893,1.123c-1.149,0.47-1.012,2.43,0.147,2.808
		c0.941,0.304,1.855-0.297,2.74-0.535c0.003,0.63,0.006,1.264,0.013,1.897c-0.999,0.382-2.041,0.666-2.988,1.166
		c-1.081,0.555-0.872,2.41,0.274,2.769c0.928,0.248,1.822-0.278,2.691-0.522c0.003,0.62,0.003,1.244,0.006,1.864
		c-1.061,0.451-2.201,0.729-3.2,1.313c-0.791,0.705-0.565,2.332,0.525,2.632c0.928,0.222,1.822-0.271,2.688-0.532
		c-0.006,0.637-0.006,1.277-0.01,1.917c-0.977,0.346-1.979,0.647-2.913,1.107c-1.042,0.467-1.009,2.198-0.013,2.701
		c0.94,0.598,1.995-0.229,2.936-0.434c-0.01,0.637-0.02,1.273-0.026,1.914c-0.95,0.359-1.93,0.646-2.848,1.081
		c-1.186,0.499-1.035,2.469,0.173,2.867c0.934,0.212,1.825-0.323,2.7-0.578c-0.003,0.637-0.003,1.277,0,1.917
		c-1.009,0.382-2.067,0.663-3.014,1.189c-1.117,0.558-0.79,2.527,0.415,2.779c0.908,0.186,1.75-0.339,2.596-0.594
		c-0.006,0.637-0.013,1.274-0.016,1.914c-1.074,0.431-2.221,0.708-3.213,1.312c-0.79,0.715-0.516,2.283,0.526,2.625
		c0.94,0.209,1.832-0.29,2.707-0.552c-0.006,0.64-0.006,1.283-0.01,1.927c-1.117,0.424-2.331,0.682-3.318,1.388
		c-0.764,0.852-0.268,2.488,0.931,2.638c0.833-0.059,1.61-0.392,2.391-0.663c0,0.64,0,1.287,0,1.93
		c-0.967,0.35-1.96,0.646-2.893,1.084c-0.98,0.398-1.061,1.999-0.212,2.577c0.924,0.787,2.113-0.052,3.092-0.274
		c0.02,1.486,0.02,2.975,0.01,4.46c-1.656,0.131-3.314,0.232-4.963,0.418C132.849,73.94,132.839,53.217,132.849,32.498z"/>
	<path style="fill:#FFFFFF;" d="M143.262,24.84c1.793-0.375,3.471-1.179,5.202-1.767c0.793-0.31,1.959-0.587,1.949-1.652
		c0.238-1.208-1.133-2.136-2.201-1.59c-1.907,0.633-3.817,1.293-5.653,2.109C141.103,22.525,141.766,24.886,143.262,24.84z"/>
	<path style="fill:#FFFFFF;" d="M156.673,22.666c1.933,0.754,3.869,1.512,5.855,2.116c1.512,0.477,2.618-1.884,1.273-2.71
		c-1.659-0.862-3.479-1.358-5.222-2.015c-0.676-0.157-1.477-0.643-2.116-0.167C155.373,20.442,155.452,22.33,156.673,22.666z"/>
	<path style="fill:#FFFFFF;" d="M148.526,26.314c-2.025,0.597-4.003,1.361-5.96,2.148c-1.574,0.621-0.621,3.406,1.009,2.851
		c2.152-0.637,4.288-1.391,6.335-2.309C151.144,28.086,150.074,25.729,148.526,26.314z"/>
	<path style="fill:#FFFFFF;" d="M163.647,28.491c-1.747-0.771-3.572-1.358-5.374-1.982c-0.595-0.134-1.29-0.509-1.839-0.065
		c-1.084,0.562-0.947,2.456,0.251,2.786c1.652,0.669,3.338,1.264,5.026,1.845c0.64,0.189,1.42,0.519,2.015,0.023
		C164.638,30.529,164.628,28.991,163.647,28.491z"/>
	<path style="fill:#FFFFFF;" d="M185.363,41.792c7.298-0.023,14.6,0.065,21.891-0.043c1.346-0.82,0.979-2.674,0.468-3.893
		c-0.621-1.593-2.133-2.504-3.599-3.197c-1.062-1.264-2.179-2.599-3.802-3.145c-2.723-1.12-5.93-0.265-7.941,1.825
		c-1.92-0.536-4.173-0.568-5.845,0.666c-2.178,1.424-3.285,4.271-2.544,6.786C184.217,41.334,184.713,41.893,185.363,41.792z
		 M189.935,36.129c1.257-0.163,2.217,1.208,3.487,0.784c0.614-0.326,0.943-1.005,1.434-1.482c1.47-1.665,4.379-1.603,5.822,0.065
		c0.571,0.621,0.836,1.486,1.482,2.041c0.892,0.297,1.852,0.486,2.53,1.202c-5.942-0.144-11.889-0.013-17.832-0.085
		C187.345,37.357,188.445,36.109,189.935,36.129z"/>
	<path style="fill:#FFFFFF;" d="M149.659,32.965c-0.633-0.418-1.358-0.082-1.992,0.131c-1.701,0.64-3.429,1.218-5.101,1.92
		c-1.048,0.389-1.071,2.044-0.17,2.616c0.787,0.565,1.763,0.065,2.577-0.18c1.587-0.608,3.226-1.091,4.767-1.812
		C150.753,35.097,150.691,33.464,149.659,32.965z"/>
	<path style="fill:#FFFFFF;" d="M163.752,35.114c-1.714-0.807-3.539-1.349-5.31-2.018c-0.558-0.131-1.169-0.549-1.73-0.239
		c-1.315,0.408-1.361,2.531-0.017,2.923c2.028,0.774,4.05,1.636,6.172,2.119C164.298,38.079,164.98,35.796,163.752,35.114z"/>
	<path style="fill:#FFFFFF;" d="M148.532,39.358c-2.028,0.673-4.046,1.401-6.012,2.234c-1.361,0.601-0.774,2.984,0.741,2.867
		c1.767-0.313,3.396-1.14,5.098-1.685c0.839-0.323,2.119-0.624,2.064-1.767C150.602,40.002,149.473,39.068,148.532,39.358z"/>
	<path style="fill:#FFFFFF;" d="M156.646,42.314c1.94,0.774,3.906,1.525,5.911,2.109c1.587,0.47,2.537-1.95,1.204-2.759
		c-1.652-0.787-3.418-1.303-5.126-1.95c-0.709-0.202-1.525-0.66-2.211-0.157C155.387,40.142,155.472,41.935,156.646,42.314z"/>
	<path style="fill:#FFFFFF;" d="M143.53,50.974c2.044-0.552,4.016-1.352,5.989-2.116c0.63-0.167,0.826-0.81,1.078-1.326
		c-0.222-0.748-0.621-1.567-1.486-1.688c-1.786,0.317-3.429,1.153-5.15,1.705c-0.813,0.362-2.018,0.558-2.178,1.61
		C141.547,50.138,142.514,51.241,143.53,50.974z"/>
	<path style="fill:#FFFFFF;" d="M163.56,48.077c-2.07-0.881-4.235-1.525-6.348-2.302c-1.283,0.212-2.067,1.871-1.016,2.818
		c1.561,0.823,3.281,1.283,4.921,1.927c0.78,0.232,1.63,0.705,2.445,0.349C164.677,50.393,164.692,48.534,163.56,48.077z"/>
	<path style="fill:#FFFFFF;" d="M148.807,52.463c-1.734,0.362-3.347,1.14-5.016,1.707c-0.667,0.314-1.577,0.435-1.897,1.192
		c-0.546,1.052,0.545,2.518,1.718,2.152c1.995-0.594,3.967-1.309,5.888-2.116c0.62-0.186,0.862-0.793,1.104-1.329
		C150.403,53.233,149.796,52.299,148.807,52.463z"/>
	<path style="fill:#FFFFFF;" d="M164.001,54.938c-1.565-0.924-3.357-1.368-5.042-2.018c-0.79-0.229-1.689-0.731-2.485-0.284
		c-1.071,0.532-1.016,2.338,0.131,2.736c1.946,0.81,3.935,1.532,5.956,2.132C163.991,57.978,165.039,55.892,164.001,54.938z"/>
	<path style="fill:#FFFFFF;" d="M148.003,59.186c-1.76,0.65-3.54,1.248-5.28,1.946c-1.1,0.34-1.303,2.024-0.34,2.648
		c0.594,0.548,1.418,0.267,2.087,0.036c1.891-0.734,3.915-1.214,5.672-2.256C151.318,60.231,149.476,58.246,148.003,59.186z"/>
	<path style="fill:#FFFFFF;" d="M158.524,59.317c-0.653-0.183-1.41-0.539-2.054-0.15c-1.045,0.545-1.022,2.345,0.12,2.753
		c2.051,0.823,4.131,1.633,6.271,2.194c1.456,0.18,2.158-2.132,0.891-2.792C162.08,60.492,160.271,59.97,158.524,59.317z"/>
	<path style="fill:#FFFFFF;" d="M149.792,65.789c-0.542-0.379-1.228-0.239-1.806-0.04c-1.603,0.542-3.193,1.137-4.777,1.731
		c-0.604,0.235-1.358,0.542-1.42,1.296c-0.275,1.14,0.97,2.276,2.077,1.776c1.913-0.624,3.824-1.28,5.678-2.07
		C150.713,68.14,150.805,66.367,149.792,65.789z"/>
	<path style="fill:#FFFFFF;" d="M158.995,66.03c-0.801-0.222-1.702-0.734-2.518-0.32c-1.015,0.522-1.045,2.315,0.069,2.75
		c1.959,0.787,3.944,1.542,5.972,2.142c1.47,0.513,2.567-1.656,1.438-2.599C162.413,67.105,160.65,66.677,158.995,66.03z"/>
	<path style="fill:#FFFFFF;" d="M148.8,72.117c-2.109,0.522-4.134,1.372-6.148,2.175c-1.153,0.398-1.156,2.171-0.128,2.717
		c0.748,0.435,1.59,0.029,2.328-0.215c1.548-0.588,3.132-1.085,4.66-1.724c0.65-0.193,0.833-0.885,1.094-1.42
		C150.348,72.872,149.786,71.866,148.8,72.117z"/>
	<path style="fill:#FFFFFF;" d="M158.906,72.545c-0.807-0.219-1.782-0.777-2.557-0.189c-0.931,0.594-0.853,2.283,0.235,2.655
		c1.949,0.793,3.928,1.545,5.946,2.149c1.489,0.48,2.518-1.643,1.43-2.632C162.368,73.665,160.592,73.205,158.906,72.545z"/>
	<path style="fill:#FFFFFF;" d="M163.697,80.924c-1.414-0.702-2.942-1.133-4.415-1.698c-0.885-0.242-1.845-0.833-2.766-0.447
		c-1.064,0.496-1.127,2.371,0.055,2.759c1.248,0.598,2.583,0.989,3.873,1.482c0.895,0.297,1.786,0.725,2.75,0.712
		C164.49,83.546,164.879,81.525,163.697,80.924z"/>
	<path style="fill:#FFFFFF;" d="M143.595,83.716c1.652-0.431,3.227-1.123,4.846-1.665c0.683-0.284,1.587-0.447,1.887-1.221
		c0.499-0.794-0.068-1.803-0.849-2.142c-0.754-0.154-1.476,0.199-2.178,0.405c-1.695,0.653-3.484,1.123-5.081,1.995
		C141.103,82.061,142.148,84.124,143.595,83.716z"/>
	<path style="fill:#FFFFFF;" d="M163.687,87.452c-1.513-0.692-3.109-1.186-4.663-1.763c-0.729-0.219-1.467-0.582-2.24-0.464
		c-1.205,0.281-1.492,2.191-0.396,2.779c1.159,0.614,2.442,0.944,3.661,1.424c1.028,0.337,2.04,0.865,3.15,0.839
		C164.514,90.12,164.866,88.026,163.687,87.452z"/>
	<path style="fill:#FFFFFF;" d="M148.803,85.211c-1.792,0.398-3.474,1.169-5.202,1.78c-0.787,0.284-1.861,0.653-1.826,1.682
		c-0.15,1.11,1.065,1.897,2.067,1.548c1.92-0.585,3.788-1.339,5.656-2.077c0.689-0.166,0.868-0.882,1.107-1.45
		C150.322,85.933,149.773,84.99,148.803,85.211z"/>
	<path style="fill:#FFFFFF;" d="M146.292,100.347c-0.663-0.653-1.665-1.521-2.586-0.767c-0.797,0.463-0.97,1.672-0.31,2.321
		c0.956,1.013,2.008,1.943,2.841,3.07c0.614,0.699,1.055,1.626,1.939,2.031c1.231,0.405,2.593-1.117,1.819-2.247
		C148.986,103.116,147.641,101.709,146.292,100.347z"/>
	<path style="fill:#FFFFFF;" d="M150.318,112.719c0.588,1.594,0.666,3.321,1.182,4.928c0.594,1.329,2.805,0.888,2.893-0.555
		c-0.121-2.293-0.734-4.552-1.508-6.707c-0.294-0.94-1.558-1.31-2.348-0.774C149.411,110.303,150.028,111.736,150.318,112.719z"/>
	<path style="fill:#FFFFFF;" d="M153.62,127.048c0.418-0.967,0.523-2.035,0.718-3.06c0.069-0.614,0.258-1.312-0.156-1.845
		c-0.477-0.764-1.623-0.95-2.309-0.366c-0.731,0.66-0.597,1.786-0.852,2.665c-0.079,0.927-0.692,2.015,0.02,2.825
		C151.661,128.073,153.183,128.024,153.62,127.048z"/>
	<path style="fill:#FFFFFF;" d="M128.094,169.104c-0.849,0.003-1.695,0.003-2.541,0.007c-0.131,3.115,0.49,6.439-0.95,9.342
		c-0.634,1.427-1.992,2.469-3.537,2.707c-1.93,0.301-4.193,0.157-5.643-1.303c-1.466-1.606-1.891-3.873-1.943-5.975
		c-0.007-6.518,0.003-13.036-0.007-19.554c-0.049-2.383,0.164-4.966,1.656-6.932c1.289-1.682,3.621-1.976,5.59-1.721
		c1.584,0.167,3.073,1.117,3.762,2.57c1.411,2.547,1.025,5.534,1.071,8.323c0.839,0.053,1.685,0.059,2.527,0.049
		c0.006-3.141,0.248-6.481-1.261-9.355c-1.241-2.488-3.983-4.033-6.736-4.02c-2.231-0.153-4.605,0.346-6.289,1.898
		c-2.227,1.936-2.871,5.032-2.933,7.853c0,6.968,0.003,13.937,0,20.902c0.062,2.257,0.425,4.621,1.714,6.527
		c1.228,1.852,3.341,3.034,5.542,3.243c3.115,0.464,6.678-0.608,8.376-3.416C128.574,176.918,128.002,172.832,128.094,169.104z"/>
	<path style="fill:#FFFFFF;" d="M194.709,173.57c-0.007-6.926,0.013-13.852-0.011-20.778c-0.064-2.867-0.888-5.992-3.239-7.834
		c-2.175-1.809-5.211-1.982-7.889-1.528c-2.024,0.438-3.854,1.724-4.911,3.507c-1.094,1.815-1.446,3.971-1.516,6.057
		c0,6.969,0,13.936,0,20.908c0.059,2.015,0.389,4.085,1.378,5.868c1.124,2.021,3.2,3.487,5.493,3.817
		c2.778,0.486,5.927-0.039,7.993-2.083C194.107,179.461,194.715,176.392,194.709,173.57z M185.709,181.332
		c-1.597,0.024-3.317-0.503-4.311-1.821c-1.276-1.695-1.633-3.88-1.636-5.95c0.017-6.968-0.017-13.939,0.017-20.908
		c0.081-2.691,1.097-6.064,4.049-6.802c2.08-0.49,4.588-0.379,6.224,1.159c1.509,1.58,2.002,3.863,2.018,5.989
		c0.003,6.965,0.003,13.93,0,20.895c-0.007,2.061-0.467,4.238-1.829,5.849C189.115,180.999,187.335,181.388,185.709,181.332z"/>
	<path style="fill:#FFFFFF;" d="M73.722,183.399c2.237-0.072,4.666-0.643,6.162-2.436c1.806-2.113,2.159-5.029,2.08-7.71
		c0.026-2.773,0.153-5.757-1.368-8.209c-0.95-1.652-2.782-2.502-4.572-2.9c1.64-0.329,3.351-1.113,4.141-2.678
		c1.284-2.38,0.99-5.166,1.019-7.765c0.013-2.188-0.451-4.526-1.962-6.191c-1.418-1.463-3.543-1.897-5.506-1.933
		c-3.053-0.02-6.103,0-9.153-0.01c0.006,13.284-0.013,26.564,0.01,39.848C67.622,183.399,70.672,183.439,73.722,183.399z
		 M76.677,164.434c2.256,1.12,2.661,3.919,2.658,6.182c-0.088,2.785,0.411,5.871-1.195,8.337c-1.091,1.665-3.233,2.103-5.091,2.044
		c-1.913,0-3.824-0.01-5.737,0.003c0.01-5.822,0.006-11.644,0-17.467C70.427,163.709,73.774,162.99,76.677,164.434z M73.751,145.968
		c1.45,0.049,3.066,0.526,3.856,1.842c1.133,1.845,0.937,4.095,0.96,6.168c-0.003,1.761,0.059,3.693-1.002,5.205
		c-0.937,1.316-2.635,1.773-4.17,1.875c-2.024,0.114-4.056,0.029-6.084,0.059c0.006-5.059,0.01-10.113-0.003-15.168
		C69.457,145.968,71.605,145.922,73.751,145.968z"/>
	<path style="fill:#FFFFFF;" d="M90.016,174.603c4.15-0.014,8.297-0.014,12.448-0.004c0.666,2.942,1.283,5.895,2.018,8.817
		c0.852-0.004,1.705,0,2.56-0.007c-2.887-13.326-5.937-26.62-8.846-39.942c-1.27-0.003-2.541,0-3.811-0.003
		c-2.959,13.306-5.809,26.636-8.745,39.949c0.784,0,1.571,0,2.358,0.007C88.749,180.5,89.363,177.545,90.016,174.603z
		 M96.191,146.641c1.995,8.546,3.902,17.114,5.852,25.673c-3.87-0.007-7.739-0.007-11.608-0.004
		C92.36,163.758,94.215,155.183,96.191,146.641z"/>
	<path style="fill:#FFFFFF;" d="M132.332,143.568c0.01,13.284-0.003,26.564,0.006,39.848c0.872-0.004,1.747-0.004,2.619,0
		c0.02-4.813,0.003-9.627,0.01-14.443c0.927-1.427,1.819-2.873,2.73-4.314c3.66,6.26,7.324,12.517,11.014,18.76
		c0.904-0.007,1.809-0.007,2.713-0.007c-4.023-7.111-8.085-14.201-12.127-21.304c3.791-6.185,7.579-12.369,11.386-18.544
		c-0.927,0.003-1.848,0.003-2.773,0.017c-4.3,7.021-8.65,14.015-12.944,21.042c0-7.02-0.007-14.038,0.003-21.055
		C134.093,143.568,133.211,143.568,132.332,143.568z"/>
	<path style="fill:#FFFFFF;" d="M169.594,179.755c0.03,1.264,0.252,2.541,0.856,3.667c0.895-0.013,1.789-0.01,2.684-0.003
		c-1.195-2.227-0.875-4.829-0.928-7.259c-0.074-2.887,0.389-5.992-1.067-8.634c-0.888-1.783-2.736-2.867-4.644-3.236
		c1.744-0.45,3.465-1.365,4.415-2.952c1.417-2.171,1.326-4.865,1.3-7.351c0.071-2.635-0.066-5.485-1.676-7.699
		c-1.338-1.923-3.774-2.658-6.018-2.704c-3.047-0.036-6.097-0.003-9.144-0.016c0.014,13.287-0.006,26.571,0.01,39.858
		c0.872-0.014,1.744-0.023,2.616-0.079c-0.017-5.923,0.006-11.847-0.014-17.767c2.913,0.124,6.025-0.441,8.748,0.872
		c1.803,0.829,2.701,2.837,2.799,4.734C169.634,174.041,169.513,176.901,169.594,179.755z M157.995,163.196
		c-0.006-5.75,0.01-11.498-0.01-17.248c2.058,0.017,4.111-0.02,6.169,0.013c1.688,0.023,3.543,0.692,4.389,2.253
		c1.391,2.329,0.953,5.133,1.028,7.716c0.053,1.924-0.127,4.068-1.509,5.545c-1.247,1.312-3.144,1.577-4.862,1.691
		C161.467,163.235,159.729,163.177,157.995,163.196z"/>
	<path style="fill:#FFFFFF;" d="M207.173,143.46c-2.903,13.319-5.836,26.63-8.706,39.956c0.787-0.004,1.577-0.004,2.371,0.003
		c0.686-2.938,1.325-5.888,2.005-8.826c4.137,0,8.274,0.003,12.412,0c0.672,2.938,1.319,5.888,2.005,8.823
		c0.872-0.004,1.74-0.004,2.615,0c-2.968-13.316-5.917-26.64-8.901-39.956C209.707,143.467,208.439,143.467,207.173,143.46z
		 M203.237,172.31c1.907-8.594,3.88-17.176,5.718-25.783c2.021,8.578,3.948,17.183,5.875,25.783
		C210.964,172.31,207.101,172.307,203.237,172.31z"/>
	<path style="fill:#FFFFFF;" d="M233.038,183.399c2.221-0.056,4.588-0.705,6.064-2.469c1.92-2.296,2.485-5.417,2.449-8.333
		c-0.007-6.318-0.003-12.634-0.003-18.949c-0.068-2.629-0.641-5.395-2.322-7.491c-1.384-1.75-3.67-2.524-5.842-2.576
		c-3.184-0.029-6.364,0-9.548-0.013c0.003,13.284-0.003,26.564,0.003,39.844C226.905,183.402,229.972,183.439,233.038,183.399z
		 M233.051,145.958c1.562,0.029,3.21,0.607,4.184,1.891c1.198,1.542,1.6,3.55,1.59,5.467c0.01,6.204,0,12.405,0.003,18.609
		c0.046,2.306,0.03,4.787-1.289,6.785c-0.908,1.532-2.736,2.25-4.454,2.27c-2.208,0.039-4.415,0.004-6.619,0.014
		c0-11.681,0.003-23.357-0.003-35.038C228.656,145.958,230.853,145.935,233.051,145.958z"/>
	<path style="fill:#FFFFFF;" d="M108.077,259.5c-1.084-0.049-2.165-0.102-3.249-0.092c-0.212,6.812,0.581,13.741-1.013,20.439
		c-1.015,4.35-3.291,8.602-7.086,11.129c-4.01,2.805-9.192,3.216-13.917,2.566c-4.869-0.627-9.365-3.66-11.697-7.994
		c-2.789-5.045-3.249-10.972-3.167-16.627c0-15.348,0-30.698,0-46.046c-0.072-6.394-0.14-13.11,2.733-18.995
		c2.181-4.637,6.746-8.022,11.814-8.77c4.732-0.644,9.937-0.396,14.009,2.37c4.039,2.57,6.403,7.08,7.38,11.658
		c1.296,5.538,0.862,11.256,0.924,16.892c1.091-0.003,2.178-0.003,3.269,0c-0.069-5.73,0.336-11.536-0.963-17.17
		c-1.087-5.25-3.755-10.394-8.265-13.48c-4.872-3.483-11.224-4.052-17-3.213c-5.476,0.794-10.501,4.183-13.268,8.977
		c-3.037,5.052-3.712,11.07-4.016,16.837c-0.007,16.434-0.003,32.866-0.003,49.301c-0.078,5.091,0.294,10.254,1.744,15.158
		c1.437,4.809,4.48,9.261,8.892,11.785c3.17,1.949,6.936,2.583,10.596,2.775c4.546-0.013,9.28-0.914,13.035-3.618
		c4.291-2.916,6.926-7.729,8.099-12.692C108.652,273.754,107.907,266.564,108.077,259.5z"/>
	<path style="fill:#FFFFFF;" d="M119.604,296.177c1.087-0.003,2.178-0.006,3.265,0c-0.006-34.528-0.006-69.06,0-103.589
		c-1.087,0-2.178,0-3.265,0.004C119.61,227.12,119.61,261.648,119.604,296.177z"/>
	<path style="fill:#FFFFFF;" d="M132.032,195.678c7.54,0,15.08,0.003,22.619,0c-0.01,33.496,0.004,66.993-0.006,100.493
		c1.116,0.003,2.236,0.003,3.354,0c-0.007-33.5,0.006-66.997-0.004-100.493c7.537,0.006,15.073,0,22.61,0.003
		c-0.007-1.032-0.007-2.061,0-3.089c-16.19-0.004-32.38,0.003-48.57-0.004C132.035,193.617,132.035,194.646,132.032,195.678z"/>
	<path style="fill:#FFFFFF;" d="M215.394,249.844c-7.559-19.079-15.096-38.166-22.639-57.252c-1.101-0.004-2.197-0.004-3.295,0
		c7.99,20.334,15.919,40.696,23.899,61.037c0.376,0.8,0.232,1.704,0.262,2.56c-0.017,13.33,0.003,26.659-0.01,39.988
		c1.084-0.006,2.171-0.006,3.262,0c-0.017-13.225,0-26.446-0.01-39.671c0.023-1.045-0.15-2.146,0.347-3.115
		c8.124-20.259,16.114-40.576,24.288-60.815c-1.159,0.023-2.318,0.01-3.478,0.026C230.491,211.688,222.902,230.751,215.394,249.844z
		"/>
</g>
</svg>
